<svg xmlns="http://www.w3.org/2000/svg" xmlns:xlink="http://www.w3.org/1999/xlink" version="1.1" id="Layer_1" x="0px" y="0px" viewBox="0 0 260 260" style="enable-background:new 0 0 260 260;" xml:space="preserve">
<style type="text/css">
	.st0{fill:#000000;}
</style>
<path class="st0" d="M100.6,146l53.5,51.5h-53c-0.2,0-0.4-0.1-0.6-0.2l-37.8-35.2c-0.2-0.1-0.4-0.2-0.6-0.2H45.5  c-0.4,0-0.8,0.4-0.8,0.8v33.9c0,0.5-0.4,0.8-0.8,0.8h-39c-0.4,0-0.8-0.4-0.8-0.8V94.1c0-0.5,0.4-0.8,0.8-0.8h39.8l-0.2,0.2  c0.2,0.1,0.2,0.4,0.2,0.6V128c0,0.5,0.4,0.8,0.8,0.8h16.6c0.2,0,0.4-0.1,0.6-0.2l37.8-35.2c0.2-0.1,0.4-0.2,0.6-0.2h30.4  c0.8,0,1.1,1.1,0.4,1.5c-2.3,1.5-4.5,3.2-6.5,5.2c-7,7-10.9,16.4-10.9,26.3v4.8c0,0.2-0.1,0.4-0.2,0.6l-13.6,13.1  C100.3,145,100.3,145.6,100.6,146L100.6,146z" fill="#000000"/>
<polygon class="st0" points="162.8,197.5 154.1,197.5 133,177.2 142.5,177.2 " fill="#000000"/>
<path class="st0" d="M255.9,94.1v31.4c0,0.5-0.4,0.8-0.8,0.8h-46.7c-0.4,0-0.8,0.4-0.8,0.8v29.7c0,0.4,0,0.8,0,1.2l0,0  c0,0.1,0,0.1,0,0.2v38.5c0,0.5-0.4,0.8-0.8,0.8h-38.9c-0.2,0-0.4-0.1-0.6-0.2l0,0l-20.1-20.1h19.6c0.1,0,0.1,0,0.2,0v-50  c0-0.5-0.4-0.8-0.8-0.8h-46.7c-0.5,0-0.8-0.4-0.8-0.9c0.2-8.8,3.9-16.7,9.7-22.5c6-6,14.2-9.7,23.4-9.7h103.4  C255.6,93.3,256,93.6,255.9,94.1L255.9,94.1z" fill="#000000"/>
</svg>