<svg width="32" height="27" viewBox="0 0 32 27" fill="none" xmlns="http://www.w3.org/2000/svg">
<path d="M27.1734 0.977234H5.25854C4.01307 0.977234 2.81861 1.47199 1.93794 2.35267C1.05726 3.23335 0.5625 4.4278 0.5625 5.67327V21.3267C0.5625 22.5722 1.05726 23.7666 1.93794 24.6473C2.81861 25.528 4.01307 26.0228 5.25854 26.0228H27.1734C28.4188 26.0228 29.6133 25.528 30.494 24.6473C31.3746 23.7666 31.8694 22.5722 31.8694 21.3267V5.67327C31.8694 4.4278 31.3746 3.23335 30.494 2.35267C29.6133 1.47199 28.4188 0.977234 27.1734 0.977234V0.977234ZM26.1246 4.10792L16.216 11.5433L6.30732 4.10792H26.1246ZM27.1734 22.8921H5.25854C4.84338 22.8921 4.44523 22.7271 4.15167 22.4336C3.85811 22.14 3.69319 21.7419 3.69319 21.3267V6.0646L15.2767 14.7523C15.5477 14.9555 15.8773 15.0653 16.216 15.0653C16.5546 15.0653 16.8842 14.9555 17.1552 14.7523L28.7387 6.0646V21.3267C28.7387 21.7419 28.5738 22.14 28.2802 22.4336C27.9867 22.7271 27.5885 22.8921 27.1734 22.8921Z" fill="black"/>
</svg>
