<svg width="32" height="33" viewBox="0 0 32 33" fill="none" xmlns="http://www.w3.org/2000/svg">
<path d="M23.0422 32.1535C22.627 32.1535 22.2289 31.9886 21.9353 31.695C21.6418 31.4014 21.4768 31.0033 21.4768 30.5881V26.5182C21.5255 26.0501 21.4754 25.5769 21.3298 25.1294C21.1842 24.6818 20.9463 24.2697 20.6316 23.9198C20.4367 23.7084 20.3038 23.4475 20.2474 23.1655C20.191 22.8836 20.2134 22.5916 20.3121 22.3216C20.4107 22.0516 20.5818 21.8139 20.8066 21.6347C21.0314 21.4555 21.3012 21.3416 21.5864 21.3056C25.4059 20.8517 28.9279 19.6307 28.9279 13.0093C28.9291 11.7728 28.5642 10.5636 27.8791 9.53424C27.247 8.58662 27.0162 7.42707 27.2373 6.30963C27.3784 5.58068 27.3784 4.83144 27.2373 4.10249C26.0652 4.4988 24.9616 5.07437 23.9657 5.80872C23.7775 5.94242 23.5619 6.03281 23.3346 6.0734C23.1073 6.114 22.8738 6.10379 22.6509 6.04352C19.8259 5.24528 16.8351 5.24528 14.0102 6.04352C13.7872 6.10379 13.5537 6.114 13.3264 6.0734C13.0991 6.03281 12.8835 5.94242 12.6953 5.80872C11.6933 5.06586 10.578 4.4897 9.39239 4.10249C9.24353 4.83067 9.24353 5.58144 9.39239 6.30963C9.59758 7.44114 9.35632 8.60815 8.71929 9.56555C8.03721 10.6022 7.67269 11.8154 7.67051 13.0563C7.67051 19.1455 10.6134 20.7734 15.0276 21.3369C15.3165 21.3728 15.5896 21.4885 15.8164 21.671C16.0431 21.8535 16.2145 22.0956 16.3112 22.3701C16.4022 22.6364 16.4197 22.9224 16.3619 23.1979C16.304 23.4734 16.173 23.7282 15.9825 23.9354C15.678 24.2609 15.4443 24.6459 15.2962 25.0662C15.148 25.4865 15.0885 25.9329 15.1215 26.3774V30.5881C15.1215 31.0033 14.9566 31.4014 14.6631 31.695C14.3695 31.9886 13.9714 32.1535 13.5562 32.1535C13.141 32.1535 12.7429 31.9886 12.4493 31.695C12.1558 31.4014 11.9909 31.0033 11.9909 30.5881V29.6959C10.4527 29.8728 8.89465 29.6667 7.4554 29.0959C6.01615 28.5251 4.74033 27.6073 3.74149 26.4243C3.22806 25.8552 2.61206 25.3879 1.92569 25.0468C1.72629 24.9954 1.53897 24.9053 1.37442 24.7815C1.20987 24.6577 1.07131 24.5027 0.966651 24.3254C0.861995 24.148 0.793292 23.9518 0.764465 23.7479C0.735638 23.5441 0.747252 23.3365 0.798643 23.1371C0.850034 22.9377 0.940196 22.7504 1.06398 22.5858C1.18777 22.4213 1.34275 22.2827 1.52008 22.1781C1.69742 22.0734 1.89363 22.0047 2.09751 21.9759C2.3014 21.947 2.50897 21.9587 2.70836 22.01C3.9125 22.4487 4.98844 23.1803 5.83905 24.1389C7.4044 25.7043 8.96974 27.0818 11.9439 26.5182C11.8916 25.6778 12.0142 24.8356 12.3039 24.045C9.07932 23.231 4.4772 20.9143 4.4772 13.0876C4.47308 11.2336 5.01773 9.41993 6.04255 7.87497C6.2329 7.58977 6.3058 7.2421 6.24604 6.90446C5.92973 5.21478 6.10914 3.46968 6.76261 1.8797C6.8514 1.6677 6.98579 1.47785 7.15622 1.32364C7.32666 1.16943 7.52897 1.05465 7.74877 0.987451C8.28099 0.830917 10.1907 0.517848 13.8067 2.86587C16.7338 2.16147 19.7863 2.16147 22.7135 2.86587C26.3294 0.517848 28.2391 0.815263 28.7557 0.987451C28.9755 1.05465 29.1778 1.16943 29.3483 1.32364C29.5187 1.47785 29.6531 1.6677 29.7419 1.8797C30.3966 3.47484 30.576 5.22532 30.2584 6.92011C30.2264 7.07281 30.2251 7.23037 30.2547 7.38357C30.2843 7.53677 30.3441 7.68254 30.4306 7.81236C31.4584 9.36175 32.0032 11.1813 31.996 13.0406C31.996 20.9769 27.4252 23.278 24.1692 23.998C24.4561 24.838 24.5731 25.7266 24.5136 26.6122V30.5881C24.5143 30.9875 24.3624 31.3721 24.0888 31.6631C23.8153 31.9541 23.4409 32.1295 23.0422 32.1535Z" fill="white"/>
</svg>
