<svg width="36" height="35" viewBox="0 0 36 35" fill="none" xmlns="http://www.w3.org/2000/svg">
<path fill-rule="evenodd" clip-rule="evenodd" d="M10.6854 0.384502C12.5215 0.299973 13.107 0.281189 17.7842 0.281189C22.4615 0.281189 23.0469 0.301538 24.8815 0.384502C26.7161 0.467465 27.9684 0.760184 29.0641 1.18439C30.2115 1.61799 31.2525 2.29579 32.1134 3.17238C32.99 4.03175 33.6662 5.07114 34.0983 6.22011C34.524 7.31585 34.8152 8.56812 34.8997 10.3996C34.9842 12.2389 35.003 12.8243 35.003 17.5C35.003 22.1772 34.9827 22.7627 34.8997 24.5988C34.8167 26.4303 34.524 27.6825 34.0983 28.7783C33.6662 29.9274 32.9889 30.9685 32.1134 31.8291C31.2525 32.7057 30.2115 33.382 29.0641 33.814C27.9684 34.2398 26.7161 34.5309 24.8846 34.6154C23.0469 34.7 22.4615 34.7188 17.7842 34.7188C13.107 34.7188 12.5215 34.6984 10.6854 34.6154C8.85393 34.5325 7.60166 34.2398 6.50591 33.814C5.35683 33.3819 4.31572 32.7046 3.45506 31.8291C2.57906 30.9692 1.90116 29.9286 1.46863 28.7798C1.04443 27.6841 0.753271 26.4318 0.668742 24.6004C0.584214 22.7611 0.56543 22.1757 0.56543 17.5C0.56543 12.8227 0.585779 12.2373 0.668742 10.4027C0.751706 8.56812 1.04443 7.31585 1.46863 6.22011C1.9018 5.07127 2.58021 4.03068 3.45662 3.17081C4.31606 2.29501 5.35612 1.61712 6.50435 1.18439C7.60009 0.760184 8.85237 0.46903 10.6838 0.384502H10.6854ZM24.7422 3.48388C22.9264 3.40092 22.3816 3.3837 17.7842 3.3837C13.1868 3.3837 12.6421 3.40092 10.8263 3.48388C9.14665 3.56059 8.23562 3.84078 7.62827 4.07715C6.82524 4.39022 6.25076 4.7612 5.64811 5.36386C5.07682 5.91964 4.63717 6.59623 4.36139 7.34402C4.12502 7.95138 3.84483 8.86241 3.76813 10.542C3.68516 12.3578 3.66794 12.9026 3.66794 17.5C3.66794 22.0974 3.68516 22.6421 3.76813 24.4579C3.84483 26.1375 4.12502 27.0486 4.36139 27.6559C4.63689 28.4026 5.07675 29.0804 5.64811 29.6361C6.2038 30.2074 6.8816 30.6473 7.62827 30.9228C8.23562 31.1592 9.14665 31.4394 10.8263 31.5161C12.6421 31.599 13.1852 31.6162 17.7842 31.6162C22.3832 31.6162 22.9264 31.599 24.7422 31.5161C26.4218 31.4394 27.3328 31.1592 27.9402 30.9228C28.7432 30.6097 29.3177 30.2387 29.9203 29.6361C30.4917 29.0804 30.9316 28.4026 31.2071 27.6559C31.4434 27.0486 31.7236 26.1375 31.8003 24.4579C31.8833 22.6421 31.9005 22.0974 31.9005 17.5C31.9005 12.9026 31.8833 12.3578 31.8003 10.542C31.7236 8.86241 31.4434 7.95138 31.2071 7.34402C30.894 6.541 30.523 5.96652 29.9203 5.36386C29.3645 4.79262 28.688 4.35298 27.9402 4.07715C27.3328 3.84078 26.4218 3.56059 24.7422 3.48388ZM15.5849 22.8081C16.8132 23.3193 18.1808 23.3884 19.4543 23.0033C20.7278 22.6182 21.8281 21.803 22.5673 20.6968C23.3065 19.5906 23.6387 18.2621 23.5072 16.9382C23.3757 15.6143 22.7886 14.3771 21.8463 13.4379C21.2456 12.8376 20.5192 12.3779 19.7195 12.0919C18.9198 11.806 18.0667 11.7009 17.2215 11.7843C16.3763 11.8677 15.5601 12.1374 14.8317 12.574C14.1032 13.0107 13.4807 13.6034 13.0088 14.3096C12.537 15.0157 12.2275 15.8177 12.1028 16.6578C11.9781 17.4978 12.0412 18.3551 12.2876 19.1679C12.5339 19.9806 12.9575 20.7287 13.5276 21.3581C14.0978 21.9876 14.8004 22.4828 15.5849 22.8081ZM11.526 11.2417C12.3478 10.4199 13.3235 9.76796 14.3973 9.32318C15.4711 8.8784 16.622 8.64948 17.7842 8.64948C18.9465 8.64948 20.0974 8.8784 21.1712 9.32318C22.245 9.76796 23.2206 10.4199 24.0425 11.2417C24.8643 12.0636 25.5162 13.0392 25.961 14.113C26.4058 15.1868 26.6347 16.3377 26.6347 17.5C26.6347 18.6622 26.4058 19.8131 25.961 20.8869C25.5162 21.9607 24.8643 22.9364 24.0425 23.7582C22.3827 25.418 20.1315 26.3505 17.7842 26.3505C15.4369 26.3505 13.1858 25.418 11.526 23.7582C9.86618 22.0984 8.93372 19.8473 8.93372 17.5C8.93372 15.1527 9.86618 12.9015 11.526 11.2417ZM28.5976 9.96754C28.8013 9.77542 28.9643 9.5444 29.0771 9.28814C29.1899 9.03188 29.2501 8.7556 29.2542 8.47566C29.2582 8.19571 29.2061 7.9178 29.1009 7.65836C28.9956 7.39892 28.8394 7.16324 28.6414 6.96527C28.4434 6.7673 28.2077 6.61106 27.9483 6.50581C27.6889 6.40055 27.411 6.34843 27.131 6.35251C26.8511 6.35659 26.5748 6.4168 26.3185 6.52957C26.0623 6.64234 25.8312 6.80538 25.6391 7.00904C25.2655 7.40512 25.0609 7.93122 25.0689 8.47566C25.0768 9.0201 25.2966 9.54001 25.6816 9.92503C26.0667 10.31 26.5866 10.5299 27.131 10.5378C27.6754 10.5457 28.2016 10.3412 28.5976 9.96754Z" fill="white"/>
</svg>
