<svg width="29" height="27" viewBox="0 0 29 27" fill="none" xmlns="http://www.w3.org/2000/svg">
<path d="M9.13167 26.0228H9.00644C6.48367 26.0007 3.99738 25.4179 1.72759 24.3165C1.31007 24.1204 0.966297 23.7958 0.746593 23.3902C0.52689 22.9846 0.442795 22.5193 0.50662 22.0624C0.576034 21.6025 0.788988 21.1762 1.11508 20.8445C1.44117 20.5128 1.86373 20.2926 2.32242 20.2153C3.72906 20.0277 5.08226 19.5535 6.2984 18.8222C4.187 17.1714 2.56153 14.9801 1.59425 12.4807C0.626973 9.98117 0.353922 7.26655 0.804035 4.62449C0.865065 4.206 1.04504 3.81386 1.32255 3.49472C1.60006 3.17558 1.96342 2.9429 2.36938 2.82435C2.76434 2.70031 3.18703 2.69501 3.58498 2.8091C3.98292 2.9232 4.33859 3.15167 4.60782 3.46614C5.52199 4.66485 6.67078 5.66476 7.98413 6.40486C9.29747 7.14496 10.7478 7.60974 12.2467 7.77084C12.3183 5.92663 13.1108 4.18419 14.4538 2.91827C15.1244 2.27612 15.9161 1.77386 16.7828 1.44075C17.6494 1.10764 18.5737 0.950344 19.5018 0.978025C20.4298 1.00571 21.3431 1.21781 22.1884 1.60199C23.0336 1.98616 23.794 2.53471 24.4251 3.21568C24.5895 3.36105 24.7938 3.4537 25.0115 3.48161C25.2292 3.50952 25.4503 3.47141 25.6461 3.37222C26.0193 3.19619 26.4349 3.12993 26.8443 3.18116C27.2538 3.23239 27.6403 3.39901 27.9586 3.66157C28.277 3.92412 28.5141 4.2718 28.6423 4.66403C28.7706 5.05625 28.7846 5.47686 28.6828 5.87677C28.3218 7.36403 27.6377 8.75355 26.6792 9.94667C26.4679 14.3997 24.5047 18.5886 21.2176 21.6001C17.9305 24.6115 13.5861 26.2013 9.13167 26.0228ZM9.13167 22.8921H9.2569C11.0769 22.9547 12.8912 22.6554 14.5946 22.0115C16.2981 21.3677 17.8567 20.3921 19.1803 19.1413C20.5039 17.8906 21.566 16.3895 22.3051 14.7252C23.0442 13.0609 23.4455 11.2664 23.4859 9.44576C23.5117 8.94681 23.7175 8.47412 24.0651 8.11521C24.4469 7.63191 24.7725 7.10675 25.0356 6.54987C24.4717 6.55094 23.9139 6.43298 23.3987 6.2037C22.8835 5.97442 22.4224 5.63899 22.0458 5.21933C21.6835 4.86016 21.2533 4.57687 20.7802 4.38603C20.3072 4.1952 19.8008 4.10065 19.2908 4.10793C18.7756 4.09461 18.2629 4.18317 17.7821 4.36852C17.3012 4.55387 16.8617 4.83237 16.4888 5.18802C15.9857 5.66545 15.6167 6.26664 15.419 6.93145C15.2212 7.59625 15.2014 8.30133 15.3617 8.97615L15.7687 10.7606L13.9373 10.8859C12.0606 11.0389 10.173 10.7822 8.40537 10.1335C6.63771 9.48482 5.03216 8.45967 3.69992 7.12905C3.64279 9.18966 4.15826 11.2257 5.18903 13.0109C6.2198 14.7961 7.72548 16.2605 9.53866 17.2412L11.0257 18.0865L10.0396 19.4953C8.97309 20.8939 7.51183 21.9408 5.84445 22.5007C6.91407 22.7688 8.01334 22.9003 9.11602 22.8921H9.13167Z" fill="white"/>
</svg>
