<?xml version="1.0" standalone="no"?>
<!DOCTYPE svg PUBLIC "-//W3C//DTD SVG 20010904//EN"
 "http://www.w3.org/TR/2001/REC-SVG-20010904/DTD/svg10.dtd">
<svg version="1.0" xmlns="http://www.w3.org/2000/svg"
 width="700.000000pt" height="700.000000pt" viewBox="0 0 700.000000 700.000000"
 preserveAspectRatio="xMidYMid meet">
<metadata>
Created by potrace 1.14, written by Peter Selinger 2001-2017
</metadata>
<g transform="translate(0.000000,700.000000) scale(0.100000,-0.100000)"
fill="#000000" stroke="none">
<path d="M123 4483 c-19 -7 -19 -2776 0 -2790 19 -14 1066 -11 1075 4 4 6 7
216 6 467 0 251 3 460 6 466 5 8 84 11 239 11 l233 0 111 -103 c62 -57 121
-112 133 -123 11 -11 77 -72 145 -135 126 -117 200 -186 343 -320 96 -90 183
-171 249 -231 l48 -44 835 -1 c459 0 833 1 832 2 -2 2 -124 125 -273 274
l-270 270 -125 -2 -125 -3 -110 107 c-60 58 -140 135 -176 170 -122 117 -461
443 -524 504 -35 33 -65 68 -67 77 -2 10 27 44 72 87 41 40 126 121 188 181
l113 110 4 137 c6 233 57 399 178 577 50 73 174 197 245 245 96 65 98 65 -376
68 l-422 2 -68 -64 c-37 -35 -78 -74 -91 -85 -13 -11 -74 -67 -135 -125 -61
-57 -127 -118 -146 -136 -36 -34 -243 -226 -314 -293 -187 -176 -261 -243
-275 -249 -9 -3 -116 -6 -238 -7 -165 0 -224 3 -230 12 -4 6 -9 219 -9 472 -1
253 -2 463 -3 468 -1 8 -1058 9 -1078 0z"/>
<path d="M3955 4479 c-22 -5 -54 -11 -71 -14 -96 -18 -251 -92 -343 -165 -153
-121 -252 -266 -309 -450 -28 -93 -45 -220 -31 -242 6 -9 163 -12 648 -12 567
0 640 -2 643 -16 2 -8 4 -314 4 -680 l-1 -665 -263 -5 -263 -5 270 -270 270
-270 518 -2 c285 -1 528 0 540 3 l23 4 2 953 3 952 635 3 c349 1 641 4 648 7
10 3 12 97 10 442 l-3 438 -1445 1 c-795 1 -1463 -3 -1485 -7z"/>
</g>
</svg>
